<svg xmlns="http://www.w3.org/2000/svg" viewBox="0 0 1024 1024">
  <defs>
    <linearGradient id="bgGradient" x1="0%" y1="0%" x2="100%" y2="100%">
      <stop offset="0%" style="stop-color:#5EEAD4;stop-opacity:1" />
      <stop offset="100%" style="stop-color:#14B8A6;stop-opacity:1" />
    </linearGradient>
    <linearGradient id="fireGradient" x1="0%" y1="0%" x2="0%" y2="100%">
      <stop offset="0%" style="stop-color:#f093fb;stop-opacity:1" />
      <stop offset="100%" style="stop-color:#f5576c;stop-opacity:1" />
    </linearGradient>
    <filter id="glow" x="-50%" y="-50%" width="200%" height="200%">
      <feGaussianBlur stdDeviation="24" result="blur"/>
      <feMerge>
        <feMergeNode in="blur"/>
        <feMergeNode in="SourceGraphic"/>
      </feMerge>
    </filter>
  </defs>
  <rect x="0" y="0" width="1024" height="1024" rx="230" ry="230" fill="url(#bgGradient)"/>
  <g transform="translate(12,112) scale(10)" filter="url(#glow)">
    <path d="M 50 10 Q 35 30 35 45 Q 35 60 50 70 Q 65 60 65 45 Q 65 30 50 10 Z" fill="url(#fireGradient)"/>
    <path d="M 50 30 Q 42 40 42 50 Q 42 60 50 65 Q 58 60 58 50 Q 58 40 50 30 Z" fill="#FFA726"/>
    <path d="M 50 45 Q 46 50 46 55 Q 46 60 50 62 Q 54 60 54 55 Q 54 50 50 45 Z" fill="#FFEB3B"/>
  </g>
</svg>
