<svg xmlns="http://www.w3.org/2000/svg" viewBox="0 0 100 100">
  <defs>
    <linearGradient id="bgGradient" x1="0%" y1="0%" x2="100%" y2="100%">
      <stop offset="0%" style="stop-color:#5EEAD4;stop-opacity:1" />
      <stop offset="100%" style="stop-color:#14B8A6;stop-opacity:1" />
    </linearGradient>
    <linearGradient id="fireGradient" x1="0%" y1="0%" x2="0%" y2="100%">
      <stop offset="0%" style="stop-color:#f093fb;stop-opacity:1" />
      <stop offset="100%" style="stop-color:#f5576c;stop-opacity:1" />
    </linearGradient>
  </defs>
  <rect x="0" y="0" width="100" height="100" rx="22" ry="22" fill="url(#bgGradient)"/>
  <g transform="translate(0,8)">
    <path d="M 50 10 Q 33 32 33 48 Q 33 64 50 74 Q 67 64 67 48 Q 67 32 50 10 Z" fill="url(#fireGradient)"/>
    <path d="M 50 30 Q 41 41 41 52 Q 41 62 50 67 Q 59 62 59 52 Q 59 41 50 30 Z" fill="#FFA726"/>
    <path d="M 50 45 Q 45 51 45 56 Q 45 61 50 63 Q 55 61 55 56 Q 55 51 50 45 Z" fill="#FFEB3B"/>
  </g>
</svg>
